<?xml version="1.0" encoding="utf-8"?>
<!-- Generator: Adobe Illustrator 16.0.0, SVG Export Plug-In . SVG Version: 6.00 Build 0)  -->
<!DOCTYPE svg PUBLIC "-//W3C//DTD SVG 1.1//EN" "http://www.w3.org/Graphics/SVG/1.1/DTD/svg11.dtd">
<svg version="1.1" id="Layer_1" xmlns="http://www.w3.org/2000/svg" xmlns:xlink="http://www.w3.org/1999/xlink" x="0px" y="0px"
	 width="69.307px" height="68.899px" viewBox="0 0 69.307 68.899" enable-background="new 0 0 69.307 68.899" xml:space="preserve">
<path fill="#333333" d="M34.619,68.895C15.473,69.016,0.692,53.526,0.027,36.104C-0.764,15.367,15.702,0.562,33.273,0.019
	c20.865-0.646,35.302,15.863,36.003,32.885C70.125,53.51,52.964,69.202,34.619,68.895 M62.213,33.732
	c0.005-2.955-0.431-5.881-1.697-8.683c-1.653-3.661-3.7-6.984-6.573-9.872c-3.982-4.007-8.842-6.252-14.121-7.819
	c-0.816-0.242-1.311,0.119-1.395,0.969c-0.039,0.392-0.008,0.79-0.007,1.185c0.011,7.007,0.077,14.013-0.011,21.019
	c-0.019,1.496,0.23,2.635,1.322,3.707c5.338,5.25,10.621,10.554,15.92,15.843c0.662,0.66,1.207,0.629,1.695-0.154
	C60.422,44.993,62.135,39.647,62.213,33.732 M30.718,20.26c-0.015,0-0.029,0-0.044,0c0-3.799,0.003-7.597-0.001-11.396
	c-0.001-1.304-0.392-1.777-1.348-1.481c-1.922,0.594-3.875,1.145-5.711,1.95c-5.072,2.222-9.066,5.753-12.13,10.361
	c-1.985,2.985-3.66,6.126-4.19,9.701C6.196,36.813,7.82,43.67,11.81,50c0.534,0.846,1.054,0.682,1.619,0.137
	c0.425-0.41,0.769-0.904,1.188-1.32c5.084-5.062,10.191-10.102,15.24-15.199c0.47-0.475,0.81-1.299,0.823-1.968
	C30.758,27.854,30.718,24.057,30.718,20.26 M38.658,53.831c0.023,0,0.047,0,0.07,0c0,2.098-0.006,4.193,0.001,6.291
	c0.005,1.309,0.743,1.811,1.916,1.293c2.878-1.275,5.755-2.553,8.623-3.846c1.486-0.672,1.535-1.207,0.253-2.256
	c-0.182-0.148-0.345-0.32-0.511-0.49c-2.905-2.945-5.799-5.904-8.729-8.826c-0.293-0.291-0.805-0.365-1.215-0.539
	c-0.136,0.379-0.384,0.758-0.39,1.141C38.64,49.008,38.658,51.42,38.658,53.831 M30.664,46.627c0.094-0.031,0.187-0.062,0.281-0.092
	c-0.198-0.342-0.422-0.977-0.591-0.963c-0.452,0.037-0.977,0.256-1.304,0.574c-3.187,3.121-6.335,6.281-9.507,9.418
	c-0.649,0.643-0.658,1.227,0.154,1.734c0.867,0.541,1.769,1.045,2.706,1.451c1.989,0.861,4.029,1.607,6.013,2.48
	c1.653,0.729,2.26,0.361,2.253-1.439C30.653,55.403,30.664,51.014,30.664,46.627"/>
</svg>
